# This file uses centimeters as units for non-parametric coordinates.

mtllib bande_export.mtl
g default
v -0.144288 -0.500000 19.479726
v 0.144288 -0.500000 19.479726
v -0.144287 0.500000 19.479724
v 0.144288 0.500000 19.479721
v -0.144287 0.500000 -19.479724
v 0.144288 0.500000 -19.479724
v -0.144288 -0.500000 -19.479721
v 0.144288 -0.500000 -19.479722
vt 0.008761 0.812309
vt 0.986315 0.812309
vt 0.986315 0.854227
vt 0.008761 0.854227
vt 0.014667 0.607948
vt 0.992225 0.607948
vt 0.992225 0.652473
vt 0.014667 0.652473
vt 0.664601 0.067306
vt 0.664601 0.005440
vt 0.994080 0.005440
vt 0.994080 0.067306
vt 0.660900 0.079783
vt 0.990380 0.079783
vt 0.990380 0.148097
vt 0.660900 0.148097
vt 0.001891 0.024779
vt 0.331371 0.024779
vt 0.331371 0.093093
vt 0.001891 0.093093
vt 0.000970 0.191253
vt 0.000970 0.106817
vt 0.330448 0.106817
vt 0.330448 0.191253
vn 0.000000 0.000003 1.000000
vn 0.000000 0.000003 1.000000
vn 0.000000 0.000003 1.000000
vn 0.000000 0.000003 1.000000
vn 0.000000 1.000000 0.000000
vn 0.000000 1.000000 0.000000
vn 0.000000 1.000000 0.000000
vn 0.000000 1.000000 0.000000
vn -0.000008 -0.000002 -1.000000
vn -0.000008 -0.000002 -1.000000
vn -0.000008 -0.000002 -1.000000
vn -0.000008 -0.000002 -1.000000
vn 0.000000 -1.000000 0.000000
vn 0.000000 -1.000000 0.000000
vn 0.000000 -1.000000 0.000000
vn 0.000000 -1.000000 0.000000
vn 1.000000 -0.000000 0.000000
vn 1.000000 -0.000000 0.000000
vn 1.000000 -0.000000 0.000000
vn 1.000000 -0.000000 0.000000
vn -1.000000 0.000000 0.000000
vn -1.000000 0.000000 0.000000
vn -1.000000 0.000000 0.000000
vn -1.000000 0.000000 0.000000
s off
g pCube1
usemtl initialShadingGroup
f 1/17/1 2/18/2 4/19/3 3/20/4
f 3/9/5 4/10/6 6/11/7 5/12/8
f 5/21/9 6/22/10 8/23/11 7/24/12
f 7/13/13 8/14/14 2/15/15 1/16/16
f 2/1/17 8/2/18 6/3/19 4/4/20
f 7/5/21 1/6/22 3/7/23 5/8/24
